<?xml version="1.0" encoding="utf-8" standalone="no"?>
<!DOCTYPE svg PUBLIC "-//W3C//DTD SVG 1.1//EN"
  "http://www.w3.org/Graphics/SVG/1.1/DTD/svg11.dtd">
<svg xmlns:xlink="http://www.w3.org/1999/xlink" width="532.8pt" height="316.8pt" viewBox="0 0 532.8 316.8" xmlns="http://www.w3.org/2000/svg" version="1.1">
 <metadata>
  <rdf:RDF xmlns:dc="http://purl.org/dc/elements/1.1/" xmlns:cc="http://creativecommons.org/ns#" xmlns:rdf="http://www.w3.org/1999/02/22-rdf-syntax-ns#">
   <cc:Work>
    <dc:type rdf:resource="http://purl.org/dc/dcmitype/StillImage"/>
    <dc:date>2026-08-19T14:16:32.566322</dc:date>
    <dc:format>image/svg+xml</dc:format>
    <dc:creator>
     <cc:Agent>
      <dc:title>Matplotlib v3.8.3, https://matplotlib.org/</dc:title>
     </cc:Agent>
    </dc:creator>
   </cc:Work>
  </rdf:RDF>
 </metadata>
 <defs>
  <style type="text/css">*{stroke-linejoin: round; stroke-linecap: butt}</style>
 </defs>
 <g id="figure_1">
  <g id="patch_1">
   <path d="M 0 316.8 
L 532.8 316.8 
L 532.8 0 
L 0 0 
z
" style="fill: #ffffff"/>
  </g>
  <g id="axes_1">
   <g id="patch_2">
    <path d="M 65.54 274.84 
L 522 274.84 
L 522 26.88 
L 65.54 26.88 
z
" style="fill: #ffffff"/>
   </g>
   <g id="line2d_1">
    <path d="M 370.21067 274.84 
L 370.21067 26.88 
" clip-path="url(#p6af746e381)" style="fill: none; stroke-dasharray: 3.7,1.6; stroke-dashoffset: 0; stroke: #808080; stroke-opacity: 0.7"/>
   </g>
   <g id="line2d_2">
    <path d="M 413.891053 274.84 
L 413.891053 26.88 
" clip-path="url(#p6af746e381)" style="fill: none; stroke-dasharray: 3.7,1.6; stroke-dashoffset: 0; stroke: #808080; stroke-opacity: 0.7"/>
   </g>
   <g id="line2d_3">
    <path d="M 457.571435 274.84 
L 457.571435 26.88 
" clip-path="url(#p6af746e381)" style="fill: none; stroke-dasharray: 3.7,1.6; stroke-dashoffset: 0; stroke: #808080; stroke-opacity: 0.7"/>
   </g>
   <g id="PolyCollection_1">
    <defs>
     <path id="mb122ec0488" d="M 86.288182 -136.486964 
L 86.288182 -107.51014 
L 108.128373 -117.623524 
L 129.968565 -185.501138 
L 151.808756 -191.973217 
L 173.648947 -183.496258 
L 195.489139 -154.159081 
L 217.32933 -162.323066 
L 239.169522 -191.177994 
L 261.009713 -190.990283 
L 282.849904 -222.423554 
L 304.690096 -171.707546 
L 326.530287 -171.831606 
L 348.370478 -178.790736 
L 370.21067 -189.035143 
L 392.050861 -185.545866 
L 413.891053 -206.739515 
L 435.731244 -196.160637 
L 457.571435 -210.209824 
L 479.411627 -64.721072 
L 501.251818 -53.230909 
L 501.251818 -220.935658 
L 501.251818 -220.935658 
L 479.411627 -213.911873 
L 457.571435 -266.874043 
L 435.731244 -266.869462 
L 413.891053 -255.621642 
L 392.050861 -259.172554 
L 370.21067 -259.026905 
L 348.370478 -259.126273 
L 326.530287 -259.761054 
L 304.690096 -242.517357 
L 282.849904 -242.466039 
L 261.009713 -242.194759 
L 239.169522 -241.813773 
L 217.32933 -238.105466 
L 195.489139 -238.712166 
L 173.648947 -238.723449 
L 151.808756 -220.850155 
L 129.968565 -203.471474 
L 108.128373 -175.606719 
L 86.288182 -136.486964 
z
"/>
    </defs>
    <g clip-path="url(#p6af746e381)">
     <use xlink:href="#mb122ec0488" x="0" y="316.8" style="fill: #1f77b4; fill-opacity: 0.15"/>
    </g>
   </g>
   <g id="PolyCollection_2">
    <defs>
     <path id="m165bf7372a" d="M 86.288182 -102.587058 
L 86.288182 -69.453115 
L 108.128373 -99.088737 
L 129.968565 -100.210077 
L 151.808756 -158.350427 
L 173.648947 -161.740266 
L 195.489139 -194.092623 
L 217.32933 -193.355805 
L 239.169522 -186.25219 
L 261.009713 -172.051256 
L 282.849904 -178.966432 
L 304.690096 -178.984135 
L 326.530287 -189.723585 
L 348.370478 -193.347585 
L 370.21067 -178.616466 
L 392.050861 -185.869905 
L 413.891053 -185.499597 
L 435.731244 -192.536294 
L 457.571435 -184.672913 
L 479.411627 -188.028857 
L 501.251818 -184.367335 
L 501.251818 -237.686773 
L 501.251818 -237.686773 
L 479.411627 -241.136001 
L 457.571435 -244.512465 
L 435.731244 -241.932894 
L 413.891053 -231.487838 
L 392.050861 -242.453211 
L 370.21067 -235.206403 
L 348.370478 -246.606033 
L 326.530287 -257.410144 
L 304.690096 -250.386207 
L 282.849904 -257.593695 
L 261.009713 -245.984469 
L 239.169522 -245.896068 
L 217.32933 -253.22886 
L 195.489139 -239.629588 
L 173.648947 -189.839818 
L 151.808756 -214.595918 
L 129.968565 -196.219404 
L 108.128373 -197.336632 
L 86.288182 -102.587058 
z
"/>
    </defs>
    <g clip-path="url(#p6af746e381)">
     <use xlink:href="#m165bf7372a" x="0" y="316.8" style="fill: #2ca02c; fill-opacity: 0.15"/>
    </g>
   </g>
   <g id="matplotlib.axis_1">
    <g id="xtick_1">
     <g id="line2d_4">
      <path d="M 151.808756 274.84 
L 151.808756 26.88 
" clip-path="url(#p6af746e381)" style="fill: none; stroke-dasharray: 0.8,1.32; stroke-dashoffset: 0; stroke: #b0b0b0; stroke-opacity: 0.3; stroke-width: 0.8"/>
     </g>
     <g id="line2d_5">
      <defs>
       <path id="m50416ab91f" d="M 0 0 
L 0 3.5 
" style="stroke: #000000; stroke-width: 0.8"/>
      </defs>
      <g>
       <use xlink:href="#m50416ab91f" x="151.808756" y="274.84" style="stroke: #000000; stroke-width: 0.8"/>
      </g>
     </g>
     <g id="text_1">
      <!-- 200 -->
      <g transform="translate(142.265006 289.438438) scale(0.1 -0.1)">
       <defs>
        <path id="DejaVuSans-32" d="M 1228 531 
L 3431 531 
L 3431 0 
L 469 0 
L 469 531 
Q 828 903 1448 1529 
Q 2069 2156 2228 2338 
Q 2531 2678 2651 2914 
Q 2772 3150 2772 3378 
Q 2772 3750 2511 3984 
Q 2250 4219 1831 4219 
Q 1534 4219 1204 4116 
Q 875 4013 500 3803 
L 500 4441 
Q 881 4594 1212 4672 
Q 1544 4750 1819 4750 
Q 2544 4750 2975 4387 
Q 3406 4025 3406 3419 
Q 3406 3131 3298 2873 
Q 3191 2616 2906 2266 
Q 2828 2175 2409 1742 
Q 1991 1309 1228 531 
z
" transform="scale(0.015625)"/>
        <path id="DejaVuSans-30" d="M 2034 4250 
Q 1547 4250 1301 3770 
Q 1056 3291 1056 2328 
Q 1056 1369 1301 889 
Q 1547 409 2034 409 
Q 2525 409 2770 889 
Q 3016 1369 3016 2328 
Q 3016 3291 2770 3770 
Q 2525 4250 2034 4250 
z
M 2034 4750 
Q 2819 4750 3233 4129 
Q 3647 3509 3647 2328 
Q 3647 1150 3233 529 
Q 2819 -91 2034 -91 
Q 1250 -91 836 529 
Q 422 1150 422 2328 
Q 422 3509 836 4129 
Q 1250 4750 2034 4750 
z
" transform="scale(0.015625)"/>
       </defs>
       <use xlink:href="#DejaVuSans-32"/>
       <use xlink:href="#DejaVuSans-30" x="63.623047"/>
       <use xlink:href="#DejaVuSans-30" x="127.246094"/>
      </g>
     </g>
    </g>
    <g id="xtick_2">
     <g id="line2d_6">
      <path d="M 239.169522 274.84 
L 239.169522 26.88 
" clip-path="url(#p6af746e381)" style="fill: none; stroke-dasharray: 0.8,1.32; stroke-dashoffset: 0; stroke: #b0b0b0; stroke-opacity: 0.3; stroke-width: 0.8"/>
     </g>
     <g id="line2d_7">
      <g>
       <use xlink:href="#m50416ab91f" x="239.169522" y="274.84" style="stroke: #000000; stroke-width: 0.8"/>
      </g>
     </g>
     <g id="text_2">
      <!-- 400 -->
      <g transform="translate(229.625772 289.438438) scale(0.1 -0.1)">
       <defs>
        <path id="DejaVuSans-34" d="M 2419 4116 
L 825 1625 
L 2419 1625 
L 2419 4116 
z
M 2253 4666 
L 3047 4666 
L 3047 1625 
L 3713 1625 
L 3713 1100 
L 3047 1100 
L 3047 0 
L 2419 0 
L 2419 1100 
L 313 1100 
L 313 1709 
L 2253 4666 
z
" transform="scale(0.015625)"/>
       </defs>
       <use xlink:href="#DejaVuSans-34"/>
       <use xlink:href="#DejaVuSans-30" x="63.623047"/>
       <use xlink:href="#DejaVuSans-30" x="127.246094"/>
      </g>
     </g>
    </g>
    <g id="xtick_3">
     <g id="line2d_8">
      <path d="M 326.530287 274.84 
L 326.530287 26.88 
" clip-path="url(#p6af746e381)" style="fill: none; stroke-dasharray: 0.8,1.32; stroke-dashoffset: 0; stroke: #b0b0b0; stroke-opacity: 0.3; stroke-width: 0.8"/>
     </g>
     <g id="line2d_9">
      <g>
       <use xlink:href="#m50416ab91f" x="326.530287" y="274.84" style="stroke: #000000; stroke-width: 0.8"/>
      </g>
     </g>
     <g id="text_3">
      <!-- 600 -->
      <g transform="translate(316.986537 289.438438) scale(0.1 -0.1)">
       <defs>
        <path id="DejaVuSans-36" d="M 2113 2584 
Q 1688 2584 1439 2293 
Q 1191 2003 1191 1497 
Q 1191 994 1439 701 
Q 1688 409 2113 409 
Q 2538 409 2786 701 
Q 3034 994 3034 1497 
Q 3034 2003 2786 2293 
Q 2538 2584 2113 2584 
z
M 3366 4563 
L 3366 3988 
Q 3128 4100 2886 4159 
Q 2644 4219 2406 4219 
Q 1781 4219 1451 3797 
Q 1122 3375 1075 2522 
Q 1259 2794 1537 2939 
Q 1816 3084 2150 3084 
Q 2853 3084 3261 2657 
Q 3669 2231 3669 1497 
Q 3669 778 3244 343 
Q 2819 -91 2113 -91 
Q 1303 -91 875 529 
Q 447 1150 447 2328 
Q 447 3434 972 4092 
Q 1497 4750 2381 4750 
Q 2619 4750 2861 4703 
Q 3103 4656 3366 4563 
z
" transform="scale(0.015625)"/>
       </defs>
       <use xlink:href="#DejaVuSans-36"/>
       <use xlink:href="#DejaVuSans-30" x="63.623047"/>
       <use xlink:href="#DejaVuSans-30" x="127.246094"/>
      </g>
     </g>
    </g>
    <g id="xtick_4">
     <g id="line2d_10">
      <path d="M 413.891053 274.84 
L 413.891053 26.88 
" clip-path="url(#p6af746e381)" style="fill: none; stroke-dasharray: 0.8,1.32; stroke-dashoffset: 0; stroke: #b0b0b0; stroke-opacity: 0.3; stroke-width: 0.8"/>
     </g>
     <g id="line2d_11">
      <g>
       <use xlink:href="#m50416ab91f" x="413.891053" y="274.84" style="stroke: #000000; stroke-width: 0.8"/>
      </g>
     </g>
     <g id="text_4">
      <!-- 800 -->
      <g transform="translate(404.347303 289.438438) scale(0.1 -0.1)">
       <defs>
        <path id="DejaVuSans-38" d="M 2034 2216 
Q 1584 2216 1326 1975 
Q 1069 1734 1069 1313 
Q 1069 891 1326 650 
Q 1584 409 2034 409 
Q 2484 409 2743 651 
Q 3003 894 3003 1313 
Q 3003 1734 2745 1975 
Q 2488 2216 2034 2216 
z
M 1403 2484 
Q 997 2584 770 2862 
Q 544 3141 544 3541 
Q 544 4100 942 4425 
Q 1341 4750 2034 4750 
Q 2731 4750 3128 4425 
Q 3525 4100 3525 3541 
Q 3525 3141 3298 2862 
Q 3072 2584 2669 2484 
Q 3125 2378 3379 2068 
Q 3634 1759 3634 1313 
Q 3634 634 3220 271 
Q 2806 -91 2034 -91 
Q 1263 -91 848 271 
Q 434 634 434 1313 
Q 434 1759 690 2068 
Q 947 2378 1403 2484 
z
M 1172 3481 
Q 1172 3119 1398 2916 
Q 1625 2713 2034 2713 
Q 2441 2713 2670 2916 
Q 2900 3119 2900 3481 
Q 2900 3844 2670 4047 
Q 2441 4250 2034 4250 
Q 1625 4250 1398 4047 
Q 1172 3844 1172 3481 
z
" transform="scale(0.015625)"/>
       </defs>
       <use xlink:href="#DejaVuSans-38"/>
       <use xlink:href="#DejaVuSans-30" x="63.623047"/>
       <use xlink:href="#DejaVuSans-30" x="127.246094"/>
      </g>
     </g>
    </g>
    <g id="xtick_5">
     <g id="line2d_12">
      <path d="M 501.251818 274.84 
L 501.251818 26.88 
" clip-path="url(#p6af746e381)" style="fill: none; stroke-dasharray: 0.8,1.32; stroke-dashoffset: 0; stroke: #b0b0b0; stroke-opacity: 0.3; stroke-width: 0.8"/>
     </g>
     <g id="line2d_13">
      <g>
       <use xlink:href="#m50416ab91f" x="501.251818" y="274.84" style="stroke: #000000; stroke-width: 0.8"/>
      </g>
     </g>
     <g id="text_5">
      <!-- 1000 -->
      <g transform="translate(488.526818 289.438438) scale(0.1 -0.1)">
       <defs>
        <path id="DejaVuSans-31" d="M 794 531 
L 1825 531 
L 1825 4091 
L 703 3866 
L 703 4441 
L 1819 4666 
L 2450 4666 
L 2450 531 
L 3481 531 
L 3481 0 
L 794 0 
L 794 531 
z
" transform="scale(0.015625)"/>
       </defs>
       <use xlink:href="#DejaVuSans-31"/>
       <use xlink:href="#DejaVuSans-30" x="63.623047"/>
       <use xlink:href="#DejaVuSans-30" x="127.246094"/>
       <use xlink:href="#DejaVuSans-30" x="190.869141"/>
      </g>
     </g>
    </g>
    <g id="text_6">
     <!-- Environment steps (thousands) -->
     <g transform="translate(215.373125 303.116562) scale(0.1 -0.1)">
      <defs>
       <path id="DejaVuSans-45" d="M 628 4666 
L 3578 4666 
L 3578 4134 
L 1259 4134 
L 1259 2753 
L 3481 2753 
L 3481 2222 
L 1259 2222 
L 1259 531 
L 3634 531 
L 3634 0 
L 628 0 
L 628 4666 
z
" transform="scale(0.015625)"/>
       <path id="DejaVuSans-6e" d="M 3513 2113 
L 3513 0 
L 2938 0 
L 2938 2094 
Q 2938 2591 2744 2837 
Q 2550 3084 2163 3084 
Q 1697 3084 1428 2787 
Q 1159 2491 1159 1978 
L 1159 0 
L 581 0 
L 581 3500 
L 1159 3500 
L 1159 2956 
Q 1366 3272 1645 3428 
Q 1925 3584 2291 3584 
Q 2894 3584 3203 3211 
Q 3513 2838 3513 2113 
z
" transform="scale(0.015625)"/>
       <path id="DejaVuSans-76" d="M 191 3500 
L 800 3500 
L 1894 563 
L 2988 3500 
L 3597 3500 
L 2284 0 
L 1503 0 
L 191 3500 
z
" transform="scale(0.015625)"/>
       <path id="DejaVuSans-69" d="M 603 3500 
L 1178 3500 
L 1178 0 
L 603 0 
L 603 3500 
z
M 603 4863 
L 1178 4863 
L 1178 4134 
L 603 4134 
L 603 4863 
z
" transform="scale(0.015625)"/>
       <path id="DejaVuSans-72" d="M 2631 2963 
Q 2534 3019 2420 3045 
Q 2306 3072 2169 3072 
Q 1681 3072 1420 2755 
Q 1159 2438 1159 1844 
L 1159 0 
L 581 0 
L 581 3500 
L 1159 3500 
L 1159 2956 
Q 1341 3275 1631 3429 
Q 1922 3584 2338 3584 
Q 2397 3584 2469 3576 
Q 2541 3569 2628 3553 
L 2631 2963 
z
" transform="scale(0.015625)"/>
       <path id="DejaVuSans-6f" d="M 1959 3097 
Q 1497 3097 1228 2736 
Q 959 2375 959 1747 
Q 959 1119 1226 758 
Q 1494 397 1959 397 
Q 2419 397 2687 759 
Q 2956 1122 2956 1747 
Q 2956 2369 2687 2733 
Q 2419 3097 1959 3097 
z
M 1959 3584 
Q 2709 3584 3137 3096 
Q 3566 2609 3566 1747 
Q 3566 888 3137 398 
Q 2709 -91 1959 -91 
Q 1206 -91 779 398 
Q 353 888 353 1747 
Q 353 2609 779 3096 
Q 1206 3584 1959 3584 
z
" transform="scale(0.015625)"/>
       <path id="DejaVuSans-6d" d="M 3328 2828 
Q 3544 3216 3844 3400 
Q 4144 3584 4550 3584 
Q 5097 3584 5394 3201 
Q 5691 2819 5691 2113 
L 5691 0 
L 5113 0 
L 5113 2094 
Q 5113 2597 4934 2840 
Q 4756 3084 4391 3084 
Q 3944 3084 3684 2787 
Q 3425 2491 3425 1978 
L 3425 0 
L 2847 0 
L 2847 2094 
Q 2847 2600 2669 2842 
Q 2491 3084 2119 3084 
Q 1678 3084 1418 2786 
Q 1159 2488 1159 1978 
L 1159 0 
L 581 0 
L 581 3500 
L 1159 3500 
L 1159 2956 
Q 1356 3278 1631 3431 
Q 1906 3584 2284 3584 
Q 2666 3584 2933 3390 
Q 3200 3197 3328 2828 
z
" transform="scale(0.015625)"/>
       <path id="DejaVuSans-65" d="M 3597 1894 
L 3597 1613 
L 953 1613 
Q 991 1019 1311 708 
Q 1631 397 2203 397 
Q 2534 397 2845 478 
Q 3156 559 3463 722 
L 3463 178 
Q 3153 47 2828 -22 
Q 2503 -91 2169 -91 
Q 1331 -91 842 396 
Q 353 884 353 1716 
Q 353 2575 817 3079 
Q 1281 3584 2069 3584 
Q 2775 3584 3186 3129 
Q 3597 2675 3597 1894 
z
M 3022 2063 
Q 3016 2534 2758 2815 
Q 2500 3097 2075 3097 
Q 1594 3097 1305 2825 
Q 1016 2553 972 2059 
L 3022 2063 
z
" transform="scale(0.015625)"/>
       <path id="DejaVuSans-74" d="M 1172 4494 
L 1172 3500 
L 2356 3500 
L 2356 3053 
L 1172 3053 
L 1172 1153 
Q 1172 725 1289 603 
Q 1406 481 1766 481 
L 2356 481 
L 2356 0 
L 1766 0 
Q 1100 0 847 248 
Q 594 497 594 1153 
L 594 3053 
L 172 3053 
L 172 3500 
L 594 3500 
L 594 4494 
L 1172 4494 
z
" transform="scale(0.015625)"/>
       <path id="DejaVuSans-20" transform="scale(0.015625)"/>
       <path id="DejaVuSans-73" d="M 2834 3397 
L 2834 2853 
Q 2591 2978 2328 3040 
Q 2066 3103 1784 3103 
Q 1356 3103 1142 2972 
Q 928 2841 928 2578 
Q 928 2378 1081 2264 
Q 1234 2150 1697 2047 
L 1894 2003 
Q 2506 1872 2764 1633 
Q 3022 1394 3022 966 
Q 3022 478 2636 193 
Q 2250 -91 1575 -91 
Q 1294 -91 989 -36 
Q 684 19 347 128 
L 347 722 
Q 666 556 975 473 
Q 1284 391 1588 391 
Q 1994 391 2212 530 
Q 2431 669 2431 922 
Q 2431 1156 2273 1281 
Q 2116 1406 1581 1522 
L 1381 1569 
Q 847 1681 609 1914 
Q 372 2147 372 2553 
Q 372 3047 722 3315 
Q 1072 3584 1716 3584 
Q 2034 3584 2315 3537 
Q 2597 3491 2834 3397 
z
" transform="scale(0.015625)"/>
       <path id="DejaVuSans-70" d="M 1159 525 
L 1159 -1331 
L 581 -1331 
L 581 3500 
L 1159 3500 
L 1159 2969 
Q 1341 3281 1617 3432 
Q 1894 3584 2278 3584 
Q 2916 3584 3314 3078 
Q 3713 2572 3713 1747 
Q 3713 922 3314 415 
Q 2916 -91 2278 -91 
Q 1894 -91 1617 61 
Q 1341 213 1159 525 
z
M 3116 1747 
Q 3116 2381 2855 2742 
Q 2594 3103 2138 3103 
Q 1681 3103 1420 2742 
Q 1159 2381 1159 1747 
Q 1159 1113 1420 752 
Q 1681 391 2138 391 
Q 2594 391 2855 752 
Q 3116 1113 3116 1747 
z
" transform="scale(0.015625)"/>
       <path id="DejaVuSans-28" d="M 1984 4856 
Q 1566 4138 1362 3434 
Q 1159 2731 1159 2009 
Q 1159 1288 1364 580 
Q 1569 -128 1984 -844 
L 1484 -844 
Q 1016 -109 783 600 
Q 550 1309 550 2009 
Q 550 2706 781 3412 
Q 1013 4119 1484 4856 
L 1984 4856 
z
" transform="scale(0.015625)"/>
       <path id="DejaVuSans-68" d="M 3513 2113 
L 3513 0 
L 2938 0 
L 2938 2094 
Q 2938 2591 2744 2837 
Q 2550 3084 2163 3084 
Q 1697 3084 1428 2787 
Q 1159 2491 1159 1978 
L 1159 0 
L 581 0 
L 581 4863 
L 1159 4863 
L 1159 2956 
Q 1366 3272 1645 3428 
Q 1925 3584 2291 3584 
Q 2894 3584 3203 3211 
Q 3513 2838 3513 2113 
z
" transform="scale(0.015625)"/>
       <path id="DejaVuSans-75" d="M 544 1381 
L 544 3500 
L 1119 3500 
L 1119 1403 
Q 1119 906 1312 657 
Q 1506 409 1894 409 
Q 2359 409 2629 706 
Q 2900 1003 2900 1516 
L 2900 3500 
L 3475 3500 
L 3475 0 
L 2900 0 
L 2900 538 
Q 2691 219 2414 64 
Q 2138 -91 1772 -91 
Q 1169 -91 856 284 
Q 544 659 544 1381 
z
M 1991 3584 
L 1991 3584 
z
" transform="scale(0.015625)"/>
       <path id="DejaVuSans-61" d="M 2194 1759 
Q 1497 1759 1228 1600 
Q 959 1441 959 1056 
Q 959 750 1161 570 
Q 1363 391 1709 391 
Q 2188 391 2477 730 
Q 2766 1069 2766 1631 
L 2766 1759 
L 2194 1759 
z
M 3341 1997 
L 3341 0 
L 2766 0 
L 2766 531 
Q 2569 213 2275 61 
Q 1981 -91 1556 -91 
Q 1019 -91 701 211 
Q 384 513 384 1019 
Q 384 1609 779 1909 
Q 1175 2209 1959 2209 
L 2766 2209 
L 2766 2266 
Q 2766 2663 2505 2880 
Q 2244 3097 1772 3097 
Q 1472 3097 1187 3025 
Q 903 2953 641 2809 
L 641 3341 
Q 956 3463 1253 3523 
Q 1550 3584 1831 3584 
Q 2591 3584 2966 3190 
Q 3341 2797 3341 1997 
z
" transform="scale(0.015625)"/>
       <path id="DejaVuSans-64" d="M 2906 2969 
L 2906 4863 
L 3481 4863 
L 3481 0 
L 2906 0 
L 2906 525 
Q 2725 213 2448 61 
Q 2172 -91 1784 -91 
Q 1150 -91 751 415 
Q 353 922 353 1747 
Q 353 2572 751 3078 
Q 1150 3584 1784 3584 
Q 2172 3584 2448 3432 
Q 2725 3281 2906 2969 
z
M 947 1747 
Q 947 1113 1208 752 
Q 1469 391 1925 391 
Q 2381 391 2643 752 
Q 2906 1113 2906 1747 
Q 2906 2381 2643 2742 
Q 2381 3103 1925 3103 
Q 1469 3103 1208 2742 
Q 947 2381 947 1747 
z
" transform="scale(0.015625)"/>
       <path id="DejaVuSans-29" d="M 513 4856 
L 1013 4856 
Q 1481 4119 1714 3412 
Q 1947 2706 1947 2009 
Q 1947 1309 1714 600 
Q 1481 -109 1013 -844 
L 513 -844 
Q 928 -128 1133 580 
Q 1338 1288 1338 2009 
Q 1338 2731 1133 3434 
Q 928 4138 513 4856 
z
" transform="scale(0.015625)"/>
      </defs>
      <use xlink:href="#DejaVuSans-45"/>
      <use xlink:href="#DejaVuSans-6e" x="63.183594"/>
      <use xlink:href="#DejaVuSans-76" x="126.5625"/>
      <use xlink:href="#DejaVuSans-69" x="185.742188"/>
      <use xlink:href="#DejaVuSans-72" x="213.525391"/>
      <use xlink:href="#DejaVuSans-6f" x="252.388672"/>
      <use xlink:href="#DejaVuSans-6e" x="313.570312"/>
      <use xlink:href="#DejaVuSans-6d" x="376.949219"/>
      <use xlink:href="#DejaVuSans-65" x="474.361328"/>
      <use xlink:href="#DejaVuSans-6e" x="535.884766"/>
      <use xlink:href="#DejaVuSans-74" x="599.263672"/>
      <use xlink:href="#DejaVuSans-20" x="638.472656"/>
      <use xlink:href="#DejaVuSans-73" x="670.259766"/>
      <use xlink:href="#DejaVuSans-74" x="722.359375"/>
      <use xlink:href="#DejaVuSans-65" x="761.568359"/>
      <use xlink:href="#DejaVuSans-70" x="823.091797"/>
      <use xlink:href="#DejaVuSans-73" x="886.568359"/>
      <use xlink:href="#DejaVuSans-20" x="938.667969"/>
      <use xlink:href="#DejaVuSans-28" x="970.455078"/>
      <use xlink:href="#DejaVuSans-74" x="1009.46875"/>
      <use xlink:href="#DejaVuSans-68" x="1048.677734"/>
      <use xlink:href="#DejaVuSans-6f" x="1112.056641"/>
      <use xlink:href="#DejaVuSans-75" x="1173.238281"/>
      <use xlink:href="#DejaVuSans-73" x="1236.617188"/>
      <use xlink:href="#DejaVuSans-61" x="1288.716797"/>
      <use xlink:href="#DejaVuSans-6e" x="1349.996094"/>
      <use xlink:href="#DejaVuSans-64" x="1413.375"/>
      <use xlink:href="#DejaVuSans-73" x="1476.851562"/>
      <use xlink:href="#DejaVuSans-29" x="1528.951172"/>
     </g>
    </g>
   </g>
   <g id="matplotlib.axis_2">
    <g id="ytick_1">
     <g id="line2d_14">
      <path d="M 65.54 249.306997 
L 522 249.306997 
" clip-path="url(#p6af746e381)" style="fill: none; stroke-dasharray: 0.8,1.32; stroke-dashoffset: 0; stroke: #b0b0b0; stroke-opacity: 0.3; stroke-width: 0.8"/>
     </g>
     <g id="line2d_15">
      <defs>
       <path id="m60226a3341" d="M 0 0 
L -3.5 0 
" style="stroke: #000000; stroke-width: 0.8"/>
      </defs>
      <g>
       <use xlink:href="#m60226a3341" x="65.54" y="249.306997" style="stroke: #000000; stroke-width: 0.8"/>
      </g>
     </g>
     <g id="text_7">
      <!-- −1000 -->
      <g transform="translate(24.710313 253.106216) scale(0.1 -0.1)">
       <defs>
        <path id="DejaVuSans-2212" d="M 678 2272 
L 4684 2272 
L 4684 1741 
L 678 1741 
L 678 2272 
z
" transform="scale(0.015625)"/>
       </defs>
       <use xlink:href="#DejaVuSans-2212"/>
       <use xlink:href="#DejaVuSans-31" x="83.789062"/>
       <use xlink:href="#DejaVuSans-30" x="147.412109"/>
       <use xlink:href="#DejaVuSans-30" x="211.035156"/>
       <use xlink:href="#DejaVuSans-30" x="274.658203"/>
      </g>
     </g>
    </g>
    <g id="ytick_2">
     <g id="line2d_16">
      <path d="M 65.54 209.39978 
L 522 209.39978 
" clip-path="url(#p6af746e381)" style="fill: none; stroke-dasharray: 0.8,1.32; stroke-dashoffset: 0; stroke: #b0b0b0; stroke-opacity: 0.3; stroke-width: 0.8"/>
     </g>
     <g id="line2d_17">
      <g>
       <use xlink:href="#m60226a3341" x="65.54" y="209.39978" style="stroke: #000000; stroke-width: 0.8"/>
      </g>
     </g>
     <g id="text_8">
      <!-- −800 -->
      <g transform="translate(31.072813 213.198999) scale(0.1 -0.1)">
       <use xlink:href="#DejaVuSans-2212"/>
       <use xlink:href="#DejaVuSans-38" x="83.789062"/>
       <use xlink:href="#DejaVuSans-30" x="147.412109"/>
       <use xlink:href="#DejaVuSans-30" x="211.035156"/>
      </g>
     </g>
    </g>
    <g id="ytick_3">
     <g id="line2d_18">
      <path d="M 65.54 169.492562 
L 522 169.492562 
" clip-path="url(#p6af746e381)" style="fill: none; stroke-dasharray: 0.8,1.32; stroke-dashoffset: 0; stroke: #b0b0b0; stroke-opacity: 0.3; stroke-width: 0.8"/>
     </g>
     <g id="line2d_19">
      <g>
       <use xlink:href="#m60226a3341" x="65.54" y="169.492562" style="stroke: #000000; stroke-width: 0.8"/>
      </g>
     </g>
     <g id="text_9">
      <!-- −600 -->
      <g transform="translate(31.072813 173.291781) scale(0.1 -0.1)">
       <use xlink:href="#DejaVuSans-2212"/>
       <use xlink:href="#DejaVuSans-36" x="83.789062"/>
       <use xlink:href="#DejaVuSans-30" x="147.412109"/>
       <use xlink:href="#DejaVuSans-30" x="211.035156"/>
      </g>
     </g>
    </g>
    <g id="ytick_4">
     <g id="line2d_20">
      <path d="M 65.54 129.585345 
L 522 129.585345 
" clip-path="url(#p6af746e381)" style="fill: none; stroke-dasharray: 0.8,1.32; stroke-dashoffset: 0; stroke: #b0b0b0; stroke-opacity: 0.3; stroke-width: 0.8"/>
     </g>
     <g id="line2d_21">
      <g>
       <use xlink:href="#m60226a3341" x="65.54" y="129.585345" style="stroke: #000000; stroke-width: 0.8"/>
      </g>
     </g>
     <g id="text_10">
      <!-- −400 -->
      <g transform="translate(31.072813 133.384564) scale(0.1 -0.1)">
       <use xlink:href="#DejaVuSans-2212"/>
       <use xlink:href="#DejaVuSans-34" x="83.789062"/>
       <use xlink:href="#DejaVuSans-30" x="147.412109"/>
       <use xlink:href="#DejaVuSans-30" x="211.035156"/>
      </g>
     </g>
    </g>
    <g id="ytick_5">
     <g id="line2d_22">
      <path d="M 65.54 89.678127 
L 522 89.678127 
" clip-path="url(#p6af746e381)" style="fill: none; stroke-dasharray: 0.8,1.32; stroke-dashoffset: 0; stroke: #b0b0b0; stroke-opacity: 0.3; stroke-width: 0.8"/>
     </g>
     <g id="line2d_23">
      <g>
       <use xlink:href="#m60226a3341" x="65.54" y="89.678127" style="stroke: #000000; stroke-width: 0.8"/>
      </g>
     </g>
     <g id="text_11">
      <!-- −200 -->
      <g transform="translate(31.072813 93.477346) scale(0.1 -0.1)">
       <use xlink:href="#DejaVuSans-2212"/>
       <use xlink:href="#DejaVuSans-32" x="83.789062"/>
       <use xlink:href="#DejaVuSans-30" x="147.412109"/>
       <use xlink:href="#DejaVuSans-30" x="211.035156"/>
      </g>
     </g>
    </g>
    <g id="ytick_6">
     <g id="line2d_24">
      <path d="M 65.54 49.77091 
L 522 49.77091 
" clip-path="url(#p6af746e381)" style="fill: none; stroke-dasharray: 0.8,1.32; stroke-dashoffset: 0; stroke: #b0b0b0; stroke-opacity: 0.3; stroke-width: 0.8"/>
     </g>
     <g id="line2d_25">
      <g>
       <use xlink:href="#m60226a3341" x="65.54" y="49.77091" style="stroke: #000000; stroke-width: 0.8"/>
      </g>
     </g>
     <g id="text_12">
      <!-- 0 -->
      <g transform="translate(52.1775 53.570129) scale(0.1 -0.1)">
       <use xlink:href="#DejaVuSans-30"/>
      </g>
     </g>
    </g>
    <g id="text_13">
     <!-- Mean evaluation episode return -->
     <g transform="translate(18.630625 230.389688) rotate(-90) scale(0.1 -0.1)">
      <defs>
       <path id="DejaVuSans-4d" d="M 628 4666 
L 1569 4666 
L 2759 1491 
L 3956 4666 
L 4897 4666 
L 4897 0 
L 4281 0 
L 4281 4097 
L 3078 897 
L 2444 897 
L 1241 4097 
L 1241 0 
L 628 0 
L 628 4666 
z
" transform="scale(0.015625)"/>
       <path id="DejaVuSans-6c" d="M 603 4863 
L 1178 4863 
L 1178 0 
L 603 0 
L 603 4863 
z
" transform="scale(0.015625)"/>
      </defs>
      <use xlink:href="#DejaVuSans-4d"/>
      <use xlink:href="#DejaVuSans-65" x="86.279297"/>
      <use xlink:href="#DejaVuSans-61" x="147.802734"/>
      <use xlink:href="#DejaVuSans-6e" x="209.082031"/>
      <use xlink:href="#DejaVuSans-20" x="272.460938"/>
      <use xlink:href="#DejaVuSans-65" x="304.248047"/>
      <use xlink:href="#DejaVuSans-76" x="365.771484"/>
      <use xlink:href="#DejaVuSans-61" x="424.951172"/>
      <use xlink:href="#DejaVuSans-6c" x="486.230469"/>
      <use xlink:href="#DejaVuSans-75" x="514.013672"/>
      <use xlink:href="#DejaVuSans-61" x="577.392578"/>
      <use xlink:href="#DejaVuSans-74" x="638.671875"/>
      <use xlink:href="#DejaVuSans-69" x="677.880859"/>
      <use xlink:href="#DejaVuSans-6f" x="705.664062"/>
      <use xlink:href="#DejaVuSans-6e" x="766.845703"/>
      <use xlink:href="#DejaVuSans-20" x="830.224609"/>
      <use xlink:href="#DejaVuSans-65" x="862.011719"/>
      <use xlink:href="#DejaVuSans-70" x="923.535156"/>
      <use xlink:href="#DejaVuSans-69" x="987.011719"/>
      <use xlink:href="#DejaVuSans-73" x="1014.794922"/>
      <use xlink:href="#DejaVuSans-6f" x="1066.894531"/>
      <use xlink:href="#DejaVuSans-64" x="1128.076172"/>
      <use xlink:href="#DejaVuSans-65" x="1191.552734"/>
      <use xlink:href="#DejaVuSans-20" x="1253.076172"/>
      <use xlink:href="#DejaVuSans-72" x="1284.863281"/>
      <use xlink:href="#DejaVuSans-65" x="1323.726562"/>
      <use xlink:href="#DejaVuSans-74" x="1385.25"/>
      <use xlink:href="#DejaVuSans-75" x="1424.458984"/>
      <use xlink:href="#DejaVuSans-72" x="1487.837891"/>
      <use xlink:href="#DejaVuSans-6e" x="1527.201172"/>
     </g>
    </g>
   </g>
   <g id="line2d_26">
    <path d="M 86.288182 201.888163 
L 108.128373 199.176476 
L 129.968565 113.328526 
L 151.808756 112.825876 
L 173.648947 117.338567 
L 195.489139 99.535281 
L 217.32933 88.612358 
L 239.169522 95.479203 
L 261.009713 98.977547 
L 282.849904 74.333961 
L 304.690096 74.282643 
L 326.530287 57.038946 
L 348.370478 57.673727 
L 370.21067 57.773095 
L 392.050861 57.627446 
L 413.891053 61.178358 
L 435.731244 49.930538 
L 457.571435 49.925957 
L 479.411627 252.078928 
L 501.251818 252.172614 
" clip-path="url(#p6af746e381)" style="fill: none; stroke-dasharray: 0.9,1.485; stroke-dashoffset: 0; stroke: #1f77b4; stroke-opacity: 0.4; stroke-width: 0.9"/>
   </g>
   <g id="line2d_27">
    <path d="M 86.288182 180.313036 
L 108.128373 147.955439 
L 129.968565 131.298862 
L 151.808756 124.826783 
L 173.648947 133.303742 
L 195.489139 162.640919 
L 217.32933 154.476934 
L 239.169522 125.622006 
L 261.009713 125.809717 
L 282.849904 94.376446 
L 304.690096 101.655712 
L 326.530287 77.304785 
L 348.370478 81.628735 
L 370.21067 64.732861 
L 392.050861 72.042685 
L 413.891053 74.219591 
L 435.731244 60.683217 
L 457.571435 69.174726 
L 479.411627 103.066873 
L 501.251818 263.569091 
" clip-path="url(#p6af746e381)" style="fill: none; stroke-dasharray: 0.9,0.9; stroke-dashoffset: 0; stroke: #1f77b4; stroke-opacity: 0.4; stroke-width: 0.9"/>
   </g>
   <g id="line2d_28">
    <path d="M 86.288182 209.28986 
L 108.128373 141.193281 
L 129.968565 124.068138 
L 151.808756 95.949845 
L 173.648947 78.076551 
L 195.489139 78.087834 
L 217.32933 78.694534 
L 239.169522 74.986227 
L 261.009713 74.605241 
L 282.849904 92.193618 
L 304.690096 145.092454 
L 326.530287 144.968394 
L 348.370478 138.009264 
L 370.21067 127.764857 
L 392.050861 131.254134 
L 413.891053 110.060485 
L 435.731244 120.639363 
L 457.571435 106.590176 
L 479.411627 102.888127 
L 501.251818 95.864342 
" clip-path="url(#p6af746e381)" style="fill: none; stroke-dasharray: 2.7,0.9,0.9,0.9; stroke-dashoffset: 0; stroke: #1f77b4; stroke-opacity: 0.4; stroke-width: 0.9"/>
   </g>
   <g id="line2d_29">
    <path d="M 86.288182 220.492005 
L 108.128373 217.711263 
L 129.968565 120.580596 
L 151.808756 102.204082 
L 173.648947 144.166793 
L 195.489139 77.170412 
L 217.32933 63.57114 
L 239.169522 70.903932 
L 261.009713 70.815531 
L 282.849904 88.461516 
L 304.690096 88.648124 
L 326.530287 85.013805 
L 348.370478 95.521137 
L 370.21067 110.307773 
L 392.050861 103.108155 
L 413.891053 99.74534 
L 435.731244 92.834602 
L 457.571435 94.272277 
L 479.411627 97.818453 
L 501.251818 94.233215 
" clip-path="url(#p6af746e381)" style="fill: none; stroke-dasharray: 0.9,1.485; stroke-dashoffset: 0; stroke: #2ca02c; stroke-opacity: 0.4; stroke-width: 0.9"/>
   </g>
   <g id="line2d_30">
    <path d="M 86.288182 214.212942 
L 108.128373 119.463368 
L 129.968565 169.305382 
L 151.808756 158.449573 
L 173.648947 126.960182 
L 195.489139 116.291883 
L 217.32933 123.444195 
L 239.169522 130.54781 
L 261.009713 144.748744 
L 282.849904 137.833568 
L 304.690096 137.815865 
L 326.530287 127.076415 
L 348.370478 123.452415 
L 370.21067 138.183534 
L 392.050861 130.930095 
L 413.891053 131.300403 
L 435.731244 124.263706 
L 457.571435 132.127087 
L 479.411627 128.771143 
L 501.251818 132.432665 
" clip-path="url(#p6af746e381)" style="fill: none; stroke-dasharray: 0.9,0.9; stroke-dashoffset: 0; stroke: #2ca02c; stroke-opacity: 0.4; stroke-width: 0.9"/>
   </g>
   <g id="line2d_31">
    <path d="M 86.288182 247.346885 
L 108.128373 177.410036 
L 129.968565 216.589923 
L 151.808756 155.455673 
L 173.648947 155.059734 
L 195.489139 122.707377 
L 217.32933 83.771082 
L 239.169522 84.03361 
L 261.009713 73.407967 
L 282.849904 59.206305 
L 304.690096 66.413793 
L 326.530287 59.389856 
L 348.370478 70.193967 
L 370.21067 81.593597 
L 392.050861 74.346789 
L 413.891053 85.312162 
L 435.731244 74.867106 
L 457.571435 72.287535 
L 479.411627 75.663999 
L 501.251818 79.113227 
" clip-path="url(#p6af746e381)" style="fill: none; stroke-dasharray: 2.7,0.9,0.9,0.9; stroke-dashoffset: 0; stroke: #2ca02c; stroke-opacity: 0.4; stroke-width: 0.9"/>
   </g>
   <g id="patch_3">
    <path d="M 65.54 274.84 
L 65.54 26.88 
" style="fill: none; stroke: #000000; stroke-width: 0.8; stroke-linejoin: miter; stroke-linecap: square"/>
   </g>
   <g id="patch_4">
    <path d="M 522 274.84 
L 522 26.88 
" style="fill: none; stroke: #000000; stroke-width: 0.8; stroke-linejoin: miter; stroke-linecap: square"/>
   </g>
   <g id="patch_5">
    <path d="M 65.54 274.84 
L 522 274.84 
" style="fill: none; stroke: #000000; stroke-width: 0.8; stroke-linejoin: miter; stroke-linecap: square"/>
   </g>
   <g id="patch_6">
    <path d="M 65.54 26.88 
L 522 26.88 
" style="fill: none; stroke: #000000; stroke-width: 0.8; stroke-linejoin: miter; stroke-linecap: square"/>
   </g>
   <g id="line2d_32">
    <path d="M 86.288182 197.163686 
L 108.128373 162.775065 
L 129.968565 122.898509 
L 151.808756 111.200835 
L 173.648947 109.572953 
L 195.489139 113.421345 
L 217.32933 107.261275 
L 239.169522 98.695812 
L 261.009713 99.797502 
L 282.849904 86.968008 
L 304.690096 107.01027 
L 326.530287 93.104042 
L 348.370478 92.437242 
L 370.21067 83.423604 
L 392.050861 86.974755 
L 413.891053 81.819478 
L 435.731244 77.084373 
L 457.571435 75.230287 
L 479.411627 152.677976 
L 501.251818 203.868682 
" clip-path="url(#p6af746e381)" style="fill: none; stroke-dasharray: 6.66,2.88; stroke-dashoffset: 0; stroke: #1f77b4; stroke-width: 1.8"/>
    <defs>
     <path id="m14b3810423" d="M -2 2 
L 2 2 
L 2 -2 
L -2 -2 
z
" style="stroke: #1f77b4; stroke-linejoin: miter"/>
    </defs>
    <g clip-path="url(#p6af746e381)">
     <use xlink:href="#m14b3810423" x="86.288182" y="197.163686" style="fill: #1f77b4; stroke: #1f77b4; stroke-linejoin: miter"/>
     <use xlink:href="#m14b3810423" x="108.128373" y="162.775065" style="fill: #1f77b4; stroke: #1f77b4; stroke-linejoin: miter"/>
     <use xlink:href="#m14b3810423" x="129.968565" y="122.898509" style="fill: #1f77b4; stroke: #1f77b4; stroke-linejoin: miter"/>
     <use xlink:href="#m14b3810423" x="151.808756" y="111.200835" style="fill: #1f77b4; stroke: #1f77b4; stroke-linejoin: miter"/>
     <use xlink:href="#m14b3810423" x="173.648947" y="109.572953" style="fill: #1f77b4; stroke: #1f77b4; stroke-linejoin: miter"/>
     <use xlink:href="#m14b3810423" x="195.489139" y="113.421345" style="fill: #1f77b4; stroke: #1f77b4; stroke-linejoin: miter"/>
     <use xlink:href="#m14b3810423" x="217.32933" y="107.261275" style="fill: #1f77b4; stroke: #1f77b4; stroke-linejoin: miter"/>
     <use xlink:href="#m14b3810423" x="239.169522" y="98.695812" style="fill: #1f77b4; stroke: #1f77b4; stroke-linejoin: miter"/>
     <use xlink:href="#m14b3810423" x="261.009713" y="99.797502" style="fill: #1f77b4; stroke: #1f77b4; stroke-linejoin: miter"/>
     <use xlink:href="#m14b3810423" x="282.849904" y="86.968008" style="fill: #1f77b4; stroke: #1f77b4; stroke-linejoin: miter"/>
     <use xlink:href="#m14b3810423" x="304.690096" y="107.01027" style="fill: #1f77b4; stroke: #1f77b4; stroke-linejoin: miter"/>
     <use xlink:href="#m14b3810423" x="326.530287" y="93.104042" style="fill: #1f77b4; stroke: #1f77b4; stroke-linejoin: miter"/>
     <use xlink:href="#m14b3810423" x="348.370478" y="92.437242" style="fill: #1f77b4; stroke: #1f77b4; stroke-linejoin: miter"/>
     <use xlink:href="#m14b3810423" x="370.21067" y="83.423604" style="fill: #1f77b4; stroke: #1f77b4; stroke-linejoin: miter"/>
     <use xlink:href="#m14b3810423" x="392.050861" y="86.974755" style="fill: #1f77b4; stroke: #1f77b4; stroke-linejoin: miter"/>
     <use xlink:href="#m14b3810423" x="413.891053" y="81.819478" style="fill: #1f77b4; stroke: #1f77b4; stroke-linejoin: miter"/>
     <use xlink:href="#m14b3810423" x="435.731244" y="77.084373" style="fill: #1f77b4; stroke: #1f77b4; stroke-linejoin: miter"/>
     <use xlink:href="#m14b3810423" x="457.571435" y="75.230287" style="fill: #1f77b4; stroke: #1f77b4; stroke-linejoin: miter"/>
     <use xlink:href="#m14b3810423" x="479.411627" y="152.677976" style="fill: #1f77b4; stroke: #1f77b4; stroke-linejoin: miter"/>
     <use xlink:href="#m14b3810423" x="501.251818" y="203.868682" style="fill: #1f77b4; stroke: #1f77b4; stroke-linejoin: miter"/>
    </g>
   </g>
   <g id="line2d_33">
    <path d="M 86.288182 227.35061 
L 108.128373 171.528222 
L 129.968565 168.8253 
L 151.808756 138.703109 
L 173.648947 142.062236 
L 195.489139 105.38989 
L 217.32933 90.262139 
L 239.169522 95.161784 
L 261.009713 96.324081 
L 282.849904 95.167129 
L 304.690096 97.625927 
L 326.530287 90.493359 
L 348.370478 96.389173 
L 370.21067 110.028301 
L 392.050861 102.795013 
L 413.891053 105.452635 
L 435.731244 97.321805 
L 457.571435 99.5623 
L 479.411627 100.751199 
L 501.251818 101.926369 
" clip-path="url(#p6af746e381)" style="fill: none; stroke-dasharray: 11.52,2.88,1.8,2.88; stroke-dashoffset: 0; stroke: #2ca02c; stroke-width: 1.8"/>
    <defs>
     <path id="m33c621f728" d="M 0 -2 
L -2 2 
L 2 2 
z
" style="stroke: #2ca02c; stroke-linejoin: miter"/>
    </defs>
    <g clip-path="url(#p6af746e381)">
     <use xlink:href="#m33c621f728" x="86.288182" y="227.35061" style="fill: #2ca02c; stroke: #2ca02c; stroke-linejoin: miter"/>
     <use xlink:href="#m33c621f728" x="108.128373" y="171.528222" style="fill: #2ca02c; stroke: #2ca02c; stroke-linejoin: miter"/>
     <use xlink:href="#m33c621f728" x="129.968565" y="168.8253" style="fill: #2ca02c; stroke: #2ca02c; stroke-linejoin: miter"/>
     <use xlink:href="#m33c621f728" x="151.808756" y="138.703109" style="fill: #2ca02c; stroke: #2ca02c; stroke-linejoin: miter"/>
     <use xlink:href="#m33c621f728" x="173.648947" y="142.062236" style="fill: #2ca02c; stroke: #2ca02c; stroke-linejoin: miter"/>
     <use xlink:href="#m33c621f728" x="195.489139" y="105.38989" style="fill: #2ca02c; stroke: #2ca02c; stroke-linejoin: miter"/>
     <use xlink:href="#m33c621f728" x="217.32933" y="90.262139" style="fill: #2ca02c; stroke: #2ca02c; stroke-linejoin: miter"/>
     <use xlink:href="#m33c621f728" x="239.169522" y="95.161784" style="fill: #2ca02c; stroke: #2ca02c; stroke-linejoin: miter"/>
     <use xlink:href="#m33c621f728" x="261.009713" y="96.324081" style="fill: #2ca02c; stroke: #2ca02c; stroke-linejoin: miter"/>
     <use xlink:href="#m33c621f728" x="282.849904" y="95.167129" style="fill: #2ca02c; stroke: #2ca02c; stroke-linejoin: miter"/>
     <use xlink:href="#m33c621f728" x="304.690096" y="97.625927" style="fill: #2ca02c; stroke: #2ca02c; stroke-linejoin: miter"/>
     <use xlink:href="#m33c621f728" x="326.530287" y="90.493359" style="fill: #2ca02c; stroke: #2ca02c; stroke-linejoin: miter"/>
     <use xlink:href="#m33c621f728" x="348.370478" y="96.389173" style="fill: #2ca02c; stroke: #2ca02c; stroke-linejoin: miter"/>
     <use xlink:href="#m33c621f728" x="370.21067" y="110.028301" style="fill: #2ca02c; stroke: #2ca02c; stroke-linejoin: miter"/>
     <use xlink:href="#m33c621f728" x="392.050861" y="102.795013" style="fill: #2ca02c; stroke: #2ca02c; stroke-linejoin: miter"/>
     <use xlink:href="#m33c621f728" x="413.891053" y="105.452635" style="fill: #2ca02c; stroke: #2ca02c; stroke-linejoin: miter"/>
     <use xlink:href="#m33c621f728" x="435.731244" y="97.321805" style="fill: #2ca02c; stroke: #2ca02c; stroke-linejoin: miter"/>
     <use xlink:href="#m33c621f728" x="457.571435" y="99.5623" style="fill: #2ca02c; stroke: #2ca02c; stroke-linejoin: miter"/>
     <use xlink:href="#m33c621f728" x="479.411627" y="100.751199" style="fill: #2ca02c; stroke: #2ca02c; stroke-linejoin: miter"/>
     <use xlink:href="#m33c621f728" x="501.251818" y="101.926369" style="fill: #2ca02c; stroke: #2ca02c; stroke-linejoin: miter"/>
    </g>
   </g>
   <g id="text_14">
    <!-- cruise -->
    <g style="fill: #808080" transform="translate(205.29433 25.21625) scale(0.08 -0.08)">
     <defs>
      <path id="DejaVuSans-63" d="M 3122 3366 
L 3122 2828 
Q 2878 2963 2633 3030 
Q 2388 3097 2138 3097 
Q 1578 3097 1268 2742 
Q 959 2388 959 1747 
Q 959 1106 1268 751 
Q 1578 397 2138 397 
Q 2388 397 2633 464 
Q 2878 531 3122 666 
L 3122 134 
Q 2881 22 2623 -34 
Q 2366 -91 2075 -91 
Q 1284 -91 818 406 
Q 353 903 353 1747 
Q 353 2603 823 3093 
Q 1294 3584 2113 3584 
Q 2378 3584 2631 3529 
Q 2884 3475 3122 3366 
z
" transform="scale(0.015625)"/>
     </defs>
     <use xlink:href="#DejaVuSans-63"/>
     <use xlink:href="#DejaVuSans-72" x="54.980469"/>
     <use xlink:href="#DejaVuSans-75" x="96.09375"/>
     <use xlink:href="#DejaVuSans-69" x="159.472656"/>
     <use xlink:href="#DejaVuSans-73" x="187.255859"/>
     <use xlink:href="#DejaVuSans-65" x="239.355469"/>
    </g>
   </g>
   <g id="text_15">
    <!-- stage 1 -->
    <g style="fill: #808080" transform="translate(377.130861 25.21625) scale(0.08 -0.08)">
     <defs>
      <path id="DejaVuSans-67" d="M 2906 1791 
Q 2906 2416 2648 2759 
Q 2391 3103 1925 3103 
Q 1463 3103 1205 2759 
Q 947 2416 947 1791 
Q 947 1169 1205 825 
Q 1463 481 1925 481 
Q 2391 481 2648 825 
Q 2906 1169 2906 1791 
z
M 3481 434 
Q 3481 -459 3084 -895 
Q 2688 -1331 1869 -1331 
Q 1566 -1331 1297 -1286 
Q 1028 -1241 775 -1147 
L 775 -588 
Q 1028 -725 1275 -790 
Q 1522 -856 1778 -856 
Q 2344 -856 2625 -561 
Q 2906 -266 2906 331 
L 2906 616 
Q 2728 306 2450 153 
Q 2172 0 1784 0 
Q 1141 0 747 490 
Q 353 981 353 1791 
Q 353 2603 747 3093 
Q 1141 3584 1784 3584 
Q 2172 3584 2450 3431 
Q 2728 3278 2906 2969 
L 2906 3500 
L 3481 3500 
L 3481 434 
z
" transform="scale(0.015625)"/>
     </defs>
     <use xlink:href="#DejaVuSans-73"/>
     <use xlink:href="#DejaVuSans-74" x="52.099609"/>
     <use xlink:href="#DejaVuSans-61" x="91.308594"/>
     <use xlink:href="#DejaVuSans-67" x="152.587891"/>
     <use xlink:href="#DejaVuSans-65" x="216.064453"/>
     <use xlink:href="#DejaVuSans-20" x="277.587891"/>
     <use xlink:href="#DejaVuSans-31" x="309.375"/>
    </g>
   </g>
   <g id="text_16">
    <!-- stage 2 -->
    <g style="fill: #808080" transform="translate(420.811244 25.21625) scale(0.08 -0.08)">
     <use xlink:href="#DejaVuSans-73"/>
     <use xlink:href="#DejaVuSans-74" x="52.099609"/>
     <use xlink:href="#DejaVuSans-61" x="91.308594"/>
     <use xlink:href="#DejaVuSans-67" x="152.587891"/>
     <use xlink:href="#DejaVuSans-65" x="216.064453"/>
     <use xlink:href="#DejaVuSans-20" x="277.587891"/>
     <use xlink:href="#DejaVuSans-32" x="309.375"/>
    </g>
   </g>
   <g id="text_17">
    <!-- stage 3 -->
    <g style="fill: #808080" transform="translate(464.491627 25.21625) scale(0.08 -0.08)">
     <defs>
      <path id="DejaVuSans-33" d="M 2597 2516 
Q 3050 2419 3304 2112 
Q 3559 1806 3559 1356 
Q 3559 666 3084 287 
Q 2609 -91 1734 -91 
Q 1441 -91 1130 -33 
Q 819 25 488 141 
L 488 750 
Q 750 597 1062 519 
Q 1375 441 1716 441 
Q 2309 441 2620 675 
Q 2931 909 2931 1356 
Q 2931 1769 2642 2001 
Q 2353 2234 1838 2234 
L 1294 2234 
L 1294 2753 
L 1863 2753 
Q 2328 2753 2575 2939 
Q 2822 3125 2822 3475 
Q 2822 3834 2567 4026 
Q 2313 4219 1838 4219 
Q 1578 4219 1281 4162 
Q 984 4106 628 3988 
L 628 4550 
Q 988 4650 1302 4700 
Q 1616 4750 1894 4750 
Q 2613 4750 3031 4423 
Q 3450 4097 3450 3541 
Q 3450 3153 3228 2886 
Q 3006 2619 2597 2516 
z
" transform="scale(0.015625)"/>
     </defs>
     <use xlink:href="#DejaVuSans-73"/>
     <use xlink:href="#DejaVuSans-74" x="52.099609"/>
     <use xlink:href="#DejaVuSans-61" x="91.308594"/>
     <use xlink:href="#DejaVuSans-67" x="152.587891"/>
     <use xlink:href="#DejaVuSans-65" x="216.064453"/>
     <use xlink:href="#DejaVuSans-20" x="277.587891"/>
     <use xlink:href="#DejaVuSans-33" x="309.375"/>
    </g>
   </g>
   <g id="text_18">
    <!-- Evaluation return during training -->
    <g transform="translate(195.44875 20.88) scale(0.12 -0.12)">
     <use xlink:href="#DejaVuSans-45"/>
     <use xlink:href="#DejaVuSans-76" x="63.183594"/>
     <use xlink:href="#DejaVuSans-61" x="122.363281"/>
     <use xlink:href="#DejaVuSans-6c" x="183.642578"/>
     <use xlink:href="#DejaVuSans-75" x="211.425781"/>
     <use xlink:href="#DejaVuSans-61" x="274.804688"/>
     <use xlink:href="#DejaVuSans-74" x="336.083984"/>
     <use xlink:href="#DejaVuSans-69" x="375.292969"/>
     <use xlink:href="#DejaVuSans-6f" x="403.076172"/>
     <use xlink:href="#DejaVuSans-6e" x="464.257812"/>
     <use xlink:href="#DejaVuSans-20" x="527.636719"/>
     <use xlink:href="#DejaVuSans-72" x="559.423828"/>
     <use xlink:href="#DejaVuSans-65" x="598.287109"/>
     <use xlink:href="#DejaVuSans-74" x="659.810547"/>
     <use xlink:href="#DejaVuSans-75" x="699.019531"/>
     <use xlink:href="#DejaVuSans-72" x="762.398438"/>
     <use xlink:href="#DejaVuSans-6e" x="801.761719"/>
     <use xlink:href="#DejaVuSans-20" x="865.140625"/>
     <use xlink:href="#DejaVuSans-64" x="896.927734"/>
     <use xlink:href="#DejaVuSans-75" x="960.404297"/>
     <use xlink:href="#DejaVuSans-72" x="1023.783203"/>
     <use xlink:href="#DejaVuSans-69" x="1064.896484"/>
     <use xlink:href="#DejaVuSans-6e" x="1092.679688"/>
     <use xlink:href="#DejaVuSans-67" x="1156.058594"/>
     <use xlink:href="#DejaVuSans-20" x="1219.535156"/>
     <use xlink:href="#DejaVuSans-74" x="1251.322266"/>
     <use xlink:href="#DejaVuSans-72" x="1290.53125"/>
     <use xlink:href="#DejaVuSans-61" x="1331.644531"/>
     <use xlink:href="#DejaVuSans-69" x="1392.923828"/>
     <use xlink:href="#DejaVuSans-6e" x="1420.707031"/>
     <use xlink:href="#DejaVuSans-69" x="1484.085938"/>
     <use xlink:href="#DejaVuSans-6e" x="1511.869141"/>
     <use xlink:href="#DejaVuSans-67" x="1575.248047"/>
    </g>
   </g>
   <g id="line2d_34">
    <path d="M 86.333609 250.495859 
L 108.240195 203.284055 
L 130.132803 174.059788 
L 152.014927 102.241094 
L 173.938985 80.958821 
L 195.510105 81.238722 
L 217.32933 81.554159 
L 239.249893 60.386897 
L 261.194918 52.939087 
L 282.902321 53.096884 
L 304.997606 46.1408 
L 326.701514 45.709336 
L 348.5452 45.84604 
L 370.350447 45.864182 
L 392.225583 52.710128 
L 414.086741 52.770968 
L 435.773177 38.314388 
L 457.91389 38.324287 
L 479.478021 38.150909 
" clip-path="url(#p6af746e381)" style="fill: none; stroke: #000000; stroke-width: 1.8; stroke-linecap: square"/>
    <defs>
     <path id="md46c9b3e47" d="M 0 2 
C 0.530406 2 1.03916 1.789267 1.414214 1.414214 
C 1.789267 1.03916 2 0.530406 2 0 
C 2 -0.530406 1.789267 -1.03916 1.414214 -1.414214 
C 1.03916 -1.789267 0.530406 -2 0 -2 
C -0.530406 -2 -1.03916 -1.789267 -1.414214 -1.414214 
C -1.789267 -1.03916 -2 -0.530406 -2 0 
C -2 0.530406 -1.789267 1.03916 -1.414214 1.414214 
C -1.03916 1.789267 -0.530406 2 0 2 
z
" style="stroke: #000000"/>
    </defs>
    <g clip-path="url(#p6af746e381)">
     <use xlink:href="#md46c9b3e47" x="86.333609" y="250.495859" style="stroke: #000000"/>
     <use xlink:href="#md46c9b3e47" x="108.240195" y="203.284055" style="stroke: #000000"/>
     <use xlink:href="#md46c9b3e47" x="130.132803" y="174.059788" style="stroke: #000000"/>
     <use xlink:href="#md46c9b3e47" x="152.014927" y="102.241094" style="stroke: #000000"/>
     <use xlink:href="#md46c9b3e47" x="173.938985" y="80.958821" style="stroke: #000000"/>
     <use xlink:href="#md46c9b3e47" x="195.510105" y="81.238722" style="stroke: #000000"/>
     <use xlink:href="#md46c9b3e47" x="217.32933" y="81.554159" style="stroke: #000000"/>
     <use xlink:href="#md46c9b3e47" x="239.249893" y="60.386897" style="stroke: #000000"/>
     <use xlink:href="#md46c9b3e47" x="261.194918" y="52.939087" style="stroke: #000000"/>
     <use xlink:href="#md46c9b3e47" x="282.902321" y="53.096884" style="stroke: #000000"/>
     <use xlink:href="#md46c9b3e47" x="304.997606" y="46.1408" style="stroke: #000000"/>
     <use xlink:href="#md46c9b3e47" x="326.701514" y="45.709336" style="stroke: #000000"/>
     <use xlink:href="#md46c9b3e47" x="348.5452" y="45.84604" style="stroke: #000000"/>
     <use xlink:href="#md46c9b3e47" x="370.350447" y="45.864182" style="stroke: #000000"/>
     <use xlink:href="#md46c9b3e47" x="392.225583" y="52.710128" style="stroke: #000000"/>
     <use xlink:href="#md46c9b3e47" x="414.086741" y="52.770968" style="stroke: #000000"/>
     <use xlink:href="#md46c9b3e47" x="435.773177" y="38.314388" style="stroke: #000000"/>
     <use xlink:href="#md46c9b3e47" x="457.91389" y="38.324287" style="stroke: #000000"/>
     <use xlink:href="#md46c9b3e47" x="479.478021" y="38.150909" style="stroke: #000000"/>
    </g>
   </g>
   <g id="legend_1">
    <g id="patch_7">
     <path d="M 71.14 270.84 
L 362.99 270.84 
Q 364.59 270.84 364.59 269.24 
L 364.59 234.8125 
Q 364.59 233.2125 362.99 233.2125 
L 71.14 233.2125 
Q 69.54 233.2125 69.54 234.8125 
L 69.54 269.24 
Q 69.54 270.84 71.14 270.84 
z
" style="fill: #ffffff; opacity: 0.95; stroke: #cccccc; stroke-linejoin: miter"/>
    </g>
    <g id="line2d_35">
     <path d="M 72.74 239.69125 
L 80.74 239.69125 
L 88.74 239.69125 
" style="fill: none; stroke: #000000; stroke-width: 1.8; stroke-linecap: square"/>
     <g>
      <use xlink:href="#md46c9b3e47" x="80.74" y="239.69125" style="stroke: #000000"/>
     </g>
    </g>
    <g id="text_19">
     <!-- SAC (published run) -->
     <g transform="translate(95.14 242.49125) scale(0.08 -0.08)">
      <defs>
       <path id="DejaVuSans-53" d="M 3425 4513 
L 3425 3897 
Q 3066 4069 2747 4153 
Q 2428 4238 2131 4238 
Q 1616 4238 1336 4038 
Q 1056 3838 1056 3469 
Q 1056 3159 1242 3001 
Q 1428 2844 1947 2747 
L 2328 2669 
Q 3034 2534 3370 2195 
Q 3706 1856 3706 1288 
Q 3706 609 3251 259 
Q 2797 -91 1919 -91 
Q 1588 -91 1214 -16 
Q 841 59 441 206 
L 441 856 
Q 825 641 1194 531 
Q 1563 422 1919 422 
Q 2459 422 2753 634 
Q 3047 847 3047 1241 
Q 3047 1584 2836 1778 
Q 2625 1972 2144 2069 
L 1759 2144 
Q 1053 2284 737 2584 
Q 422 2884 422 3419 
Q 422 4038 858 4394 
Q 1294 4750 2059 4750 
Q 2388 4750 2728 4690 
Q 3069 4631 3425 4513 
z
" transform="scale(0.015625)"/>
       <path id="DejaVuSans-41" d="M 2188 4044 
L 1331 1722 
L 3047 1722 
L 2188 4044 
z
M 1831 4666 
L 2547 4666 
L 4325 0 
L 3669 0 
L 3244 1197 
L 1141 1197 
L 716 0 
L 50 0 
L 1831 4666 
z
" transform="scale(0.015625)"/>
       <path id="DejaVuSans-43" d="M 4122 4306 
L 4122 3641 
Q 3803 3938 3442 4084 
Q 3081 4231 2675 4231 
Q 1875 4231 1450 3742 
Q 1025 3253 1025 2328 
Q 1025 1406 1450 917 
Q 1875 428 2675 428 
Q 3081 428 3442 575 
Q 3803 722 4122 1019 
L 4122 359 
Q 3791 134 3420 21 
Q 3050 -91 2638 -91 
Q 1578 -91 968 557 
Q 359 1206 359 2328 
Q 359 3453 968 4101 
Q 1578 4750 2638 4750 
Q 3056 4750 3426 4639 
Q 3797 4528 4122 4306 
z
" transform="scale(0.015625)"/>
       <path id="DejaVuSans-62" d="M 3116 1747 
Q 3116 2381 2855 2742 
Q 2594 3103 2138 3103 
Q 1681 3103 1420 2742 
Q 1159 2381 1159 1747 
Q 1159 1113 1420 752 
Q 1681 391 2138 391 
Q 2594 391 2855 752 
Q 3116 1113 3116 1747 
z
M 1159 2969 
Q 1341 3281 1617 3432 
Q 1894 3584 2278 3584 
Q 2916 3584 3314 3078 
Q 3713 2572 3713 1747 
Q 3713 922 3314 415 
Q 2916 -91 2278 -91 
Q 1894 -91 1617 61 
Q 1341 213 1159 525 
L 1159 0 
L 581 0 
L 581 4863 
L 1159 4863 
L 1159 2969 
z
" transform="scale(0.015625)"/>
      </defs>
      <use xlink:href="#DejaVuSans-53"/>
      <use xlink:href="#DejaVuSans-41" x="65.351562"/>
      <use xlink:href="#DejaVuSans-43" x="132.009766"/>
      <use xlink:href="#DejaVuSans-20" x="201.833984"/>
      <use xlink:href="#DejaVuSans-28" x="233.621094"/>
      <use xlink:href="#DejaVuSans-70" x="272.634766"/>
      <use xlink:href="#DejaVuSans-75" x="336.111328"/>
      <use xlink:href="#DejaVuSans-62" x="399.490234"/>
      <use xlink:href="#DejaVuSans-6c" x="462.966797"/>
      <use xlink:href="#DejaVuSans-69" x="490.75"/>
      <use xlink:href="#DejaVuSans-73" x="518.533203"/>
      <use xlink:href="#DejaVuSans-68" x="570.632812"/>
      <use xlink:href="#DejaVuSans-65" x="634.011719"/>
      <use xlink:href="#DejaVuSans-64" x="695.535156"/>
      <use xlink:href="#DejaVuSans-20" x="759.011719"/>
      <use xlink:href="#DejaVuSans-72" x="790.798828"/>
      <use xlink:href="#DejaVuSans-75" x="831.912109"/>
      <use xlink:href="#DejaVuSans-6e" x="895.291016"/>
      <use xlink:href="#DejaVuSans-29" x="958.669922"/>
     </g>
    </g>
    <g id="line2d_36">
     <path d="M 72.74 251.43375 
L 80.74 251.43375 
L 88.74 251.43375 
" style="fill: none; stroke-dasharray: 6.66,2.88; stroke-dashoffset: 0; stroke: #1f77b4; stroke-width: 1.8"/>
     <g>
      <use xlink:href="#m14b3810423" x="80.74" y="251.43375" style="fill: #1f77b4; stroke: #1f77b4; stroke-linejoin: miter"/>
     </g>
    </g>
    <g id="text_20">
     <!-- PPO (mean of 3 seeds) -->
     <g transform="translate(95.14 254.23375) scale(0.08 -0.08)">
      <defs>
       <path id="DejaVuSans-50" d="M 1259 4147 
L 1259 2394 
L 2053 2394 
Q 2494 2394 2734 2622 
Q 2975 2850 2975 3272 
Q 2975 3691 2734 3919 
Q 2494 4147 2053 4147 
L 1259 4147 
z
M 628 4666 
L 2053 4666 
Q 2838 4666 3239 4311 
Q 3641 3956 3641 3272 
Q 3641 2581 3239 2228 
Q 2838 1875 2053 1875 
L 1259 1875 
L 1259 0 
L 628 0 
L 628 4666 
z
" transform="scale(0.015625)"/>
       <path id="DejaVuSans-4f" d="M 2522 4238 
Q 1834 4238 1429 3725 
Q 1025 3213 1025 2328 
Q 1025 1447 1429 934 
Q 1834 422 2522 422 
Q 3209 422 3611 934 
Q 4013 1447 4013 2328 
Q 4013 3213 3611 3725 
Q 3209 4238 2522 4238 
z
M 2522 4750 
Q 3503 4750 4090 4092 
Q 4678 3434 4678 2328 
Q 4678 1225 4090 567 
Q 3503 -91 2522 -91 
Q 1538 -91 948 565 
Q 359 1222 359 2328 
Q 359 3434 948 4092 
Q 1538 4750 2522 4750 
z
" transform="scale(0.015625)"/>
       <path id="DejaVuSans-66" d="M 2375 4863 
L 2375 4384 
L 1825 4384 
Q 1516 4384 1395 4259 
Q 1275 4134 1275 3809 
L 1275 3500 
L 2222 3500 
L 2222 3053 
L 1275 3053 
L 1275 0 
L 697 0 
L 697 3053 
L 147 3053 
L 147 3500 
L 697 3500 
L 697 3744 
Q 697 4328 969 4595 
Q 1241 4863 1831 4863 
L 2375 4863 
z
" transform="scale(0.015625)"/>
      </defs>
      <use xlink:href="#DejaVuSans-50"/>
      <use xlink:href="#DejaVuSans-50" x="60.302734"/>
      <use xlink:href="#DejaVuSans-4f" x="120.605469"/>
      <use xlink:href="#DejaVuSans-20" x="199.316406"/>
      <use xlink:href="#DejaVuSans-28" x="231.103516"/>
      <use xlink:href="#DejaVuSans-6d" x="270.117188"/>
      <use xlink:href="#DejaVuSans-65" x="367.529297"/>
      <use xlink:href="#DejaVuSans-61" x="429.052734"/>
      <use xlink:href="#DejaVuSans-6e" x="490.332031"/>
      <use xlink:href="#DejaVuSans-20" x="553.710938"/>
      <use xlink:href="#DejaVuSans-6f" x="585.498047"/>
      <use xlink:href="#DejaVuSans-66" x="646.679688"/>
      <use xlink:href="#DejaVuSans-20" x="681.884766"/>
      <use xlink:href="#DejaVuSans-33" x="713.671875"/>
      <use xlink:href="#DejaVuSans-20" x="777.294922"/>
      <use xlink:href="#DejaVuSans-73" x="809.082031"/>
      <use xlink:href="#DejaVuSans-65" x="861.181641"/>
      <use xlink:href="#DejaVuSans-65" x="922.705078"/>
      <use xlink:href="#DejaVuSans-64" x="984.228516"/>
      <use xlink:href="#DejaVuSans-73" x="1047.705078"/>
      <use xlink:href="#DejaVuSans-29" x="1099.804688"/>
     </g>
    </g>
    <g id="patch_8">
     <path d="M 72.74 265.97625 
L 88.74 265.97625 
L 88.74 260.37625 
L 72.74 260.37625 
z
" style="fill: #1f77b4; fill-opacity: 0.15"/>
    </g>
    <g id="text_21">
     <!-- PPO seed range -->
     <g transform="translate(95.14 265.97625) scale(0.08 -0.08)">
      <use xlink:href="#DejaVuSans-50"/>
      <use xlink:href="#DejaVuSans-50" x="60.302734"/>
      <use xlink:href="#DejaVuSans-4f" x="120.605469"/>
      <use xlink:href="#DejaVuSans-20" x="199.316406"/>
      <use xlink:href="#DejaVuSans-73" x="231.103516"/>
      <use xlink:href="#DejaVuSans-65" x="283.203125"/>
      <use xlink:href="#DejaVuSans-65" x="344.726562"/>
      <use xlink:href="#DejaVuSans-64" x="406.25"/>
      <use xlink:href="#DejaVuSans-20" x="469.726562"/>
      <use xlink:href="#DejaVuSans-72" x="501.513672"/>
      <use xlink:href="#DejaVuSans-61" x="542.626953"/>
      <use xlink:href="#DejaVuSans-6e" x="603.90625"/>
      <use xlink:href="#DejaVuSans-67" x="667.285156"/>
      <use xlink:href="#DejaVuSans-65" x="730.761719"/>
     </g>
    </g>
    <g id="line2d_37">
     <path d="M 202.245 239.69125 
L 210.245 239.69125 
L 218.245 239.69125 
" style="fill: none; stroke-dasharray: 11.52,2.88,1.8,2.88; stroke-dashoffset: 0; stroke: #2ca02c; stroke-width: 1.8"/>
     <g>
      <use xlink:href="#m33c621f728" x="210.245" y="239.69125" style="fill: #2ca02c; stroke: #2ca02c; stroke-linejoin: miter"/>
     </g>
    </g>
    <g id="text_22">
     <!-- SAC (retrained) (mean of 3 seeds) -->
     <g transform="translate(224.645 242.49125) scale(0.08 -0.08)">
      <use xlink:href="#DejaVuSans-53"/>
      <use xlink:href="#DejaVuSans-41" x="65.351562"/>
      <use xlink:href="#DejaVuSans-43" x="132.009766"/>
      <use xlink:href="#DejaVuSans-20" x="201.833984"/>
      <use xlink:href="#DejaVuSans-28" x="233.621094"/>
      <use xlink:href="#DejaVuSans-72" x="272.634766"/>
      <use xlink:href="#DejaVuSans-65" x="311.498047"/>
      <use xlink:href="#DejaVuSans-74" x="373.021484"/>
      <use xlink:href="#DejaVuSans-72" x="412.230469"/>
      <use xlink:href="#DejaVuSans-61" x="453.34375"/>
      <use xlink:href="#DejaVuSans-69" x="514.623047"/>
      <use xlink:href="#DejaVuSans-6e" x="542.40625"/>
      <use xlink:href="#DejaVuSans-65" x="605.785156"/>
      <use xlink:href="#DejaVuSans-64" x="667.308594"/>
      <use xlink:href="#DejaVuSans-29" x="730.785156"/>
      <use xlink:href="#DejaVuSans-20" x="769.798828"/>
      <use xlink:href="#DejaVuSans-28" x="801.585938"/>
      <use xlink:href="#DejaVuSans-6d" x="840.599609"/>
      <use xlink:href="#DejaVuSans-65" x="938.011719"/>
      <use xlink:href="#DejaVuSans-61" x="999.535156"/>
      <use xlink:href="#DejaVuSans-6e" x="1060.814453"/>
      <use xlink:href="#DejaVuSans-20" x="1124.193359"/>
      <use xlink:href="#DejaVuSans-6f" x="1155.980469"/>
      <use xlink:href="#DejaVuSans-66" x="1217.162109"/>
      <use xlink:href="#DejaVuSans-20" x="1252.367188"/>
      <use xlink:href="#DejaVuSans-33" x="1284.154297"/>
      <use xlink:href="#DejaVuSans-20" x="1347.777344"/>
      <use xlink:href="#DejaVuSans-73" x="1379.564453"/>
      <use xlink:href="#DejaVuSans-65" x="1431.664062"/>
      <use xlink:href="#DejaVuSans-65" x="1493.1875"/>
      <use xlink:href="#DejaVuSans-64" x="1554.710938"/>
      <use xlink:href="#DejaVuSans-73" x="1618.1875"/>
      <use xlink:href="#DejaVuSans-29" x="1670.287109"/>
     </g>
    </g>
    <g id="patch_9">
     <path d="M 202.245 254.23375 
L 218.245 254.23375 
L 218.245 248.63375 
L 202.245 248.63375 
z
" style="fill: #2ca02c; fill-opacity: 0.15"/>
    </g>
    <g id="text_23">
     <!-- SAC (retrained) seed range -->
     <g transform="translate(224.645 254.23375) scale(0.08 -0.08)">
      <use xlink:href="#DejaVuSans-53"/>
      <use xlink:href="#DejaVuSans-41" x="65.351562"/>
      <use xlink:href="#DejaVuSans-43" x="132.009766"/>
      <use xlink:href="#DejaVuSans-20" x="201.833984"/>
      <use xlink:href="#DejaVuSans-28" x="233.621094"/>
      <use xlink:href="#DejaVuSans-72" x="272.634766"/>
      <use xlink:href="#DejaVuSans-65" x="311.498047"/>
      <use xlink:href="#DejaVuSans-74" x="373.021484"/>
      <use xlink:href="#DejaVuSans-72" x="412.230469"/>
      <use xlink:href="#DejaVuSans-61" x="453.34375"/>
      <use xlink:href="#DejaVuSans-69" x="514.623047"/>
      <use xlink:href="#DejaVuSans-6e" x="542.40625"/>
      <use xlink:href="#DejaVuSans-65" x="605.785156"/>
      <use xlink:href="#DejaVuSans-64" x="667.308594"/>
      <use xlink:href="#DejaVuSans-29" x="730.785156"/>
      <use xlink:href="#DejaVuSans-20" x="769.798828"/>
      <use xlink:href="#DejaVuSans-73" x="801.585938"/>
      <use xlink:href="#DejaVuSans-65" x="853.685547"/>
      <use xlink:href="#DejaVuSans-65" x="915.208984"/>
      <use xlink:href="#DejaVuSans-64" x="976.732422"/>
      <use xlink:href="#DejaVuSans-20" x="1040.208984"/>
      <use xlink:href="#DejaVuSans-72" x="1071.996094"/>
      <use xlink:href="#DejaVuSans-61" x="1113.109375"/>
      <use xlink:href="#DejaVuSans-6e" x="1174.388672"/>
      <use xlink:href="#DejaVuSans-67" x="1237.767578"/>
      <use xlink:href="#DejaVuSans-65" x="1301.244141"/>
     </g>
    </g>
   </g>
  </g>
 </g>
 <defs>
  <clipPath id="p6af746e381">
   <rect x="65.54" y="26.88" width="456.46" height="247.96"/>
  </clipPath>
 </defs>
</svg>
